<?xml version="1.0" encoding="utf-8"?>
<!-- Generator: Adobe Illustrator 27.3.1, SVG Export Plug-In . SVG Version: 6.00 Build 0)  -->
<svg version="1.1" id="Layer_1" xmlns="http://www.w3.org/2000/svg" xmlns:xlink="http://www.w3.org/1999/xlink" width="192px" height="35px"
	 viewBox="0 0 192 35" style="enable-background:new 0 0 192 35;" xml:space="preserve">
<style type="text/css">
	.st0{fill:none;}
	.st1{fill-rule:evenodd;clip-rule:evenodd;fill:#D16527;}
	.st2{fill:#D16527;}
	.st3{fill:#141414;}
</style>
<rect class="st0" width="192" height="35"/>
<path class="st1" d="M0,17.5C0,7.8,7.8,0,17.5,0S35,7.8,35,17.5C35,27.2,27.2,35,17.5,35S0,27.2,0,17.5z M24,28.8
	c0.8-0.5,1.5-1,2.2-1.6c2.7-2.4,4.3-5.8,4.3-9.6c0-7.2-5.8-13-13-13s-13,5.8-13,13c0,3.8,1.7,7.3,4.3,9.7c0.7,0.6,1.4,1.1,2.2,1.6
	c2,1.1,4.2,1.7,6.5,1.7C19.9,30.5,22.1,29.9,24,28.8z M0,35"/>
<circle class="st2" cx="17.5" cy="17.5" r="1.2"/>
<path class="st1" d="M8.4,16.1l2.6,1.9c1,0.7,1.4,1.9,1,3l-1,3c-1.7-1.6-2.7-3.9-2.7-6.5C8.3,17,8.3,16.5,8.4,16.1L8.4,16.1z
	 M9,17.5c0,1.9,0.6,3.7,1.8,5.2l0.4-1.1c-0.7-1-1.1-2.2-1.1-3.5l-1-0.7V17.5z M12.5,13.4H9.3c1.3-2.6,3.8-4.5,6.7-4.9l-1,3
	C14.7,12.6,13.7,13.4,12.5,13.4L12.5,13.4z M11.6,12.7c0.8-1,1.9-1.7,3-2.2l0.4-1.1c-1.9,0.6-3.5,1.7-4.6,3.4
	C10.5,12.7,11.6,12.7,11.6,12.7z M19.9,11.5l-1-3c2.9,0.5,5.4,2.3,6.7,4.9h-3.2C21.3,13.4,20.3,12.6,19.9,11.5z M19.9,9.3l0.4,1.1
	c1.2,0.5,2.2,1.3,3.1,2.2h1.1C23.4,11.1,21.8,9.9,19.9,9.3z M24,17.9l2.6-1.9l0.1,0.7l0.1,0.7c0,2.4-1,4.8-2.7,6.5l-1-3
	C22.7,19.8,23.1,18.6,24,17.9L24,17.9z M23.9,21.5l0.4,1.1c1.2-1.5,1.8-3.3,1.8-5.2v-0.1L25,18C25,19.3,24.6,20.5,23.9,21.5z
	 M15.9,23.8c0.9-0.7,2.2-0.7,3.2,0l2.5,1.9c-1.2,0.6-2.6,1-4.1,1c-1.4,0-2.8-0.3-4.1-1L15.9,23.8z M15.7,24.8l-1,0.7
	c0.9,0.3,1.8,0.4,2.8,0.5c0.9,0,1.9-0.2,2.8-0.5l-1-0.7C18.7,25,18.1,25,17.5,25C16.9,25,16.3,25,15.7,24.8L15.7,24.8z"/>
<path class="st2" d="M77.3,7.7h3.6l5.8,12.7h0.1l5.9-12.7h3.6v19.7h-3.7v-12h-0.1L88,24.6h-2.4l-4.5-9.2H81v12h-3.7L77.3,7.7
	L77.3,7.7z M99.6,24.1V10.9l3.2-3.2h10.1l3.2,3.2v13.2l-3.2,3.2h-10.1L99.6,24.1z M110.9,24.1l1.4-1.4V12.4l-1.4-1.4h-6.1l-1.4,1.4
	v10.3l1.4,1.4C104.8,24.1,110.9,24.1,110.9,24.1z M123.7,10.9h-5.9V7.7h15.6v3.2h-5.9v16.5h-3.8V10.9z M134.9,24.1V10.9l3.2-3.2
	h10.1l3.2,3.2v13.2l-3.2,3.2h-10.1L134.9,24.1z M146.3,24.1l1.4-1.4V12.4l-1.4-1.4h-6.1l-1.4,1.4v10.3l1.4,1.4
	C140.2,24.1,146.3,24.1,146.3,24.1z M170.5,20.9v6.5h-3.8v-5.7l-1.7-1.9h-6.1v7.6h-3.8V7.7h12.4l3,3v6l-1.9,1.9L170.5,20.9
	L170.5,20.9z M158.8,16.7h6.8l1-1v-3.8l-1-1h-6.8V16.7z M173.5,24.3v-2.8h3.8v1.7l0.9,0.9h5.8l1-1v-3.2l-0.9-0.9h-7.5l-3-3v-5.2l3-3
	h8.9l3,3v2.8h-3.8v-1.7l-0.9-0.9h-5.6l-0.9,0.9v2.9l0.9,0.9h7.5l3,3v5.6l-3.1,3.1h-9.1C176.6,27.4,173.5,24.3,173.5,24.3z"/>
<g>
	<path class="st3" d="M50.1,7.4C50.1,7.4,50.2,7.4,50.1,7.4l0.1,3.8c0,0,0,0.1-0.1,0.1h-7.4v4.2h0.2h3.8c0.1,0,0.1,0,0.1,0.1v3.7
		c0,0,0,0.1-0.1,0.1h-3.8h-0.2v7.9c0,0.1,0,0.1-0.1,0.1h-4.2c-0.1,0-0.1,0-0.1-0.1V7.5c0-0.1,0-0.1,0.1-0.1H50.1z"/>
	<path class="st3" d="M57.1,7.4L57.1,7.4l0.1,19.8c0,0.1,0,0.1-0.1,0.1h-4.2c0,0-0.1,0-0.1-0.1V7.5c0-0.1,0-0.1,0.1-0.1H57.1z"/>
	<path class="st3" d="M64.3,7.3c0.1,0.1,0.4,0.8,0.9,2.1l0.9,2.1h0.1c0.1,0,0.4-0.8,1.1-2.5c0.4-1.1,0.6-1.6,0.7-1.7h4.5h0.1
		c-2.7,6.6-4,10-4,10c2.7,6.5,4,9.9,4,9.9H68c-0.1,0-0.4-0.7-0.9-2c-0.1-0.1-0.3-0.7-0.9-2h-0.1c-0.1,0.1-0.7,1.4-1.6,3.8
		c-0.1,0.1-0.1,0.2-0.1,0.2h-4.6c0,0-0.1,0-0.1-0.1l4.1-9.8c-2.7-6.6-4.1-10-4.1-10l0,0C59.7,7.3,64.3,7.3,64.3,7.3z"/>
</g>
</svg>
